<svg width="57" height="40" viewBox="0 0 57 40" fill="none" xmlns="http://www.w3.org/2000/svg">
<g id="Help outline" clip-path="url(#clip0_19_105)">
<path id="Vector" d="M19.85 30.2H23.15V26.8H19.85V30.2ZM21.5 3C12.392 3 5 10.616 5 20C5 29.384 12.392 37 21.5 37C30.608 37 38 29.384 38 20C38 10.616 30.608 3 21.5 3ZM21.5 33.6C14.2235 33.6 8.3 27.497 8.3 20C8.3 12.503 14.2235 6.4 21.5 6.4C28.7765 6.4 34.7 12.503 34.7 20C34.7 27.497 28.7765 33.6 21.5 33.6ZM21.5 9.8C17.8535 9.8 14.9 12.843 14.9 16.6H18.2C18.2 14.73 19.685 13.2 21.5 13.2C23.315 13.2 24.8 14.73 24.8 16.6C24.8 20 19.85 19.575 19.85 25.1H23.15C23.15 21.275 28.1 20.85 28.1 16.6C28.1 12.843 25.1465 9.8 21.5 9.8Z" fill="#858585"/>
</g>
<defs>
<clipPath id="clip0_19_105">
<rect width="56.3415" height="40" fill="white"/>
</clipPath>
</defs>
</svg>
