<svg width="57" height="40" viewBox="0 0 57 40" fill="none" xmlns="http://www.w3.org/2000/svg">
<g id="Notifications" clip-path="url(#clip0_19_91)">
<path id="Vector" d="M28 36C30.0625 36 31.75 34.4769 31.75 32.6154H24.25C24.25 34.4769 25.9375 36 28 36ZM39.25 25.8462V17.3846C39.25 12.1892 36.1937 7.84 30.8125 6.68923V5.53846C30.8125 4.13385 29.5562 3 28 3C26.4438 3 25.1875 4.13385 25.1875 5.53846V6.68923C19.825 7.84 16.75 12.1723 16.75 17.3846V25.8462L13 29.2308V30.9231H43V29.2308L39.25 25.8462ZM35.5 27.5385H20.5V17.3846C20.5 13.1877 23.3312 9.76923 28 9.76923C32.6688 9.76923 35.5 13.1877 35.5 17.3846V27.5385Z" fill="#858585"/>
</g>
<defs>
<clipPath id="clip0_19_91">
<rect width="56.3415" height="40" fill="white"/>
</clipPath>
</defs>
</svg>
